<?xml version="1.0" encoding="UTF-8" standalone="no"?>
<!DOCTYPE svg PUBLIC "-//W3C//DTD SVG 1.1//EN" "http://www.w3.org/Graphics/SVG/1.1/DTD/svg11.dtd">
<svg version="1.1" xmlns="http://www.w3.org/2000/svg" xmlns:xlink="http://www.w3.org/1999/xlink" preserveAspectRatio="xMidYMid meet" viewBox="164.8216913397406 123.06779661016945 65.95050418650251 139.4237288135593" width="61.36" height="135.42"><defs><path d="M166.41 124.07L214.83 124.07L214.83 259.49L166.41 259.49L166.41 124.07Z" id="bR8cc3bNm"></path><path d="M166.82 141.07L214.42 141.07L214.42 189.01L166.82 189.01L166.82 141.07Z" id="cLmV1EV9o"></path><linearGradient id="gradientb1vqCTB1Hy" gradientUnits="userSpaceOnUse" x1="190.62" y1="176.26" x2="190.62" y2="183.45"><stop style="stop-color: #000000;stop-opacity: 1" offset="0%"></stop><stop style="stop-color: #808080;stop-opacity: 1" offset="100%"></stop></linearGradient><path d="M166.82 124.77L214.42 124.77L214.42 140.48L166.82 140.48L166.82 124.77Z" id="aqsgFtEkT"></path><path d="M166.82 242.4L214.42 242.4L214.42 258.11L166.82 258.11L166.82 242.4Z" id="agXZ59Pdb"></path><path d="M214.42 244.26L166.82 244.26L166.82 193.34L214.42 193.34L214.42 244.26Z" id="a1lTFFPbZw"></path><linearGradient id="gradientc1XRVVBEH8" gradientUnits="userSpaceOnUse" x1="189.4" y1="192.62" x2="189.4" y2="209.32"><stop style="stop-color: #000000;stop-opacity: 1" offset="0%"></stop><stop style="stop-color: #4f4f4f;stop-opacity: 1" offset="100%"></stop></linearGradient><path d="M166.82 236.21L214.42 236.21" id="b2vwOrqsUZ"></path><path d="M214.42 191.78L166.82 191.78" id="c3PfWsryr"></path><path d="M214.42 171.44L166.82 171.44" id="h1BHCaZp2U"></path><path d="M214.42 158.25L166.82 158.25" id="chz5brlXT"></path><path d="M214.42 147.28L166.82 147.28" id="dVpykpc"></path><path d="M166.82 212.06L214.42 212.06" id="c2dj2gRgw"></path><path d="M166.82 225.24L214.42 225.24" id="fzvbQljuK"></path><path d="M214.83 259.49C214.61 255.63 225.16 243.21 227.21 240.48C229.26 237.74 225.16 227.21 223.84 222.79C218.33 204.4 214.89 195.86 214.84 191.76C214.82 190.79 215.45 187.74 216.71 182.61C216.71 182.61 225.33 146.63 225.33 146.63C225.48 145.99 224.6 149.73 225.47 146C225.86 144.36 225.6 142.63 224.75 141.16C223.43 138.88 220.12 133.18 214.83 124.07" id="eSQr0a1Ml"></path></defs><g><g><use xlink:href="#bR8cc3bNm" opacity="1" fill="#252525" fill-opacity="1"></use></g><g><use xlink:href="#cLmV1EV9o" opacity="0.63" fill="url(#gradientb1vqCTB1Hy)"></use></g><g><use xlink:href="#aqsgFtEkT" opacity="1" fill="#717171" fill-opacity="1"></use></g><g><use xlink:href="#agXZ59Pdb" opacity="1" fill="#000000" fill-opacity="1"></use></g><g><use xlink:href="#a1lTFFPbZw" opacity="0.63" fill="url(#gradientc1XRVVBEH8)"></use></g><g><g><use xlink:href="#b2vwOrqsUZ" opacity="1" fill-opacity="0" stroke="#111111" stroke-width="2" stroke-opacity="1"></use></g></g><g><g><use xlink:href="#c3PfWsryr" opacity="1" fill-opacity="0" stroke="#ffffff" stroke-width="4" stroke-opacity="1"></use></g></g><g><g><use xlink:href="#h1BHCaZp2U" opacity="1" fill-opacity="0" stroke="#494949" stroke-width="2" stroke-opacity="1"></use></g></g><g><g><use xlink:href="#chz5brlXT" opacity="1" fill-opacity="0" stroke="#5e5e5e" stroke-width="2" stroke-opacity="1"></use></g></g><g><g><use xlink:href="#dVpykpc" opacity="1" fill-opacity="0" stroke="#717171" stroke-width="2" stroke-opacity="1"></use></g></g><g><g><use xlink:href="#c2dj2gRgw" opacity="1" fill-opacity="0" stroke="#131313" stroke-width="2" stroke-opacity="1"></use></g></g><g><g><use xlink:href="#fzvbQljuK" opacity="1" fill-opacity="0" stroke="#1c1c1c" stroke-width="2" stroke-opacity="1"></use></g></g><g><use xlink:href="#eSQr0a1Ml" opacity="1" fill="#adadad" fill-opacity="0.45"></use><g><use xlink:href="#eSQr0a1Ml" opacity="1" fill-opacity="0" stroke="#2b2929" stroke-width="0" stroke-opacity="1"></use></g></g></g></svg>