<?xml version="1.0" encoding="UTF-8" standalone="no"?>
<!DOCTYPE svg PUBLIC "-//W3C//DTD SVG 1.1//EN" "http://www.w3.org/Graphics/SVG/1.1/DTD/svg11.dtd">
<svg version="1.1" xmlns="http://www.w3.org/2000/svg" xmlns:xlink="http://www.w3.org/1999/xlink" preserveAspectRatio="xMidYMid meet" viewBox="100.16944587018415 55.03575822534091 133.71784150618825 269.32471269694804" width="121.72" height="257.32"><defs><path d="M104 61.04L220.99 61.04L220.99 100.7L104 100.7L104 61.04Z" id="a48cf08Dz"></path><path d="M221.12 138.21L104.14 138.21L104.14 135.21L221.12 135.21L221.12 138.21Z" id="djgVOySld"></path><path d="M104 112.67L220.99 112.67L220.99 114.17L104 114.17L104 112.67Z" id="bmj5rzgUO"></path><path d="M220.99 163.39L104 163.39L104 159.31L220.99 159.31L220.99 163.39Z" id="ad7Q6Uvu8"></path><path d="M104.44 264.48L221.42 264.48L221.42 279.39L104.44 279.39L104.44 264.48Z" id="b1PXFp3iA"></path><path d="M220.99 194.2L104 194.2L104 183.58L220.99 183.58L220.99 194.2Z" id="d1qFew7ZI"></path><path d="M104 240.12L220.99 240.12L220.99 243.12L104 243.12L104 240.12Z" id="c9z0G2iTj"></path><path d="M221.12 265.98L104.14 265.98L104.14 264.48L221.12 264.48L221.12 265.98Z" id="ah626jz5f"></path><path d="M104 216.06L220.99 216.06L220.99 220.14L104 220.14L104 216.06Z" id="aNLIzMdK6"></path><path d="M104.44 278.69L221.42 278.69L221.42 318.36L104.44 318.36L104.44 278.69Z" id="a8IoejwP6y"></path><path d="M104.44 243.12L221.42 243.12L221.42 264.48L104.44 264.48L104.44 243.12Z" id="g8dlgMMEQZ"></path><linearGradient id="gradientl7NxPPuF" gradientUnits="userSpaceOnUse" x1="162.93" y1="243.12" x2="162.93" y2="264.48"><stop style="stop-color: #7b8d8e;stop-opacity: 1" offset="0%"></stop><stop style="stop-color: #899e9c;stop-opacity: 1" offset="100%"></stop></linearGradient><path d="M104.44 220L221.42 220L221.42 240.5L104.44 240.5L104.44 220Z" id="bsZWDwZfy"></path><linearGradient id="gradientb2VpVGNG7C" gradientUnits="userSpaceOnUse" x1="162.5" y1="220" x2="162.93" y2="240.5"><stop style="stop-color: #77888a;stop-opacity: 1" offset="0%"></stop><stop style="stop-color: #465454;stop-opacity: 1" offset="100%"></stop></linearGradient><path d="M221.12 113L104.14 113L104.14 100.7L221.12 100.7L221.12 113Z" id="akz1kgzkF"></path><path d="M221.42 135.98L104.44 135.98L104.44 113.98L221.42 113.98L221.42 135.98Z" id="c1bD8gqXkW"></path><linearGradient id="gradientbxSOAuFEK" gradientUnits="userSpaceOnUse" x1="162.93" y1="135.98" x2="162.93" y2="113.98"><stop style="stop-color: #0b0e0f;stop-opacity: 1" offset="0%"></stop><stop style="stop-color: #0a0d0d;stop-opacity: 1" offset="100%"></stop></linearGradient><path d="M221.42 159.25L104.44 159.25L104.44 138.25L221.42 138.25L221.42 159.25Z" id="b2wMoZOAG"></path><linearGradient id="gradienti4SQ3ZlKei" gradientUnits="userSpaceOnUse" x1="163.37" y1="159.25" x2="162.93" y2="138.25"><stop style="stop-color: #131717;stop-opacity: 1" offset="0%"></stop><stop style="stop-color: #121718;stop-opacity: 1" offset="100%"></stop></linearGradient><path d="M104.44 194.2L221.42 194.2L221.42 216.2L104.44 216.2L104.44 194.2Z" id="id906Mm1Q"></path><linearGradient id="gradientc6wkb4sXs" gradientUnits="userSpaceOnUse" x1="162.5" y1="194.2" x2="162.93" y2="216.2"><stop style="stop-color: #3a4648;stop-opacity: 1" offset="0%"></stop><stop style="stop-color: #4d5d5e;stop-opacity: 1" offset="100%"></stop></linearGradient><path d="M104.44 163.39L221.42 163.39L221.42 185.39L104.44 185.39L104.44 163.39Z" id="b3AqeDXQlh"></path><linearGradient id="gradientb5STyLEcxp" gradientUnits="userSpaceOnUse" x1="162.5" y1="163.39" x2="162.93" y2="185.39"><stop style="stop-color: #2c3637;stop-opacity: 1" offset="0%"></stop><stop style="stop-color: #465454;stop-opacity: 1" offset="100%"></stop></linearGradient><path d="M220.99 63.53L222.99 63.53L222.99 315.36L220.99 315.36L220.99 63.53Z" id="cDc4KGJT9"></path><path d="M102.17 61.04L104.17 61.04L104.17 318.36L102.17 318.36L102.17 61.04Z" id="a6AZTAqfRT"></path><path d="M104.14 318.36L104.14 315.36L223.89 315.36L223.89 318.36L104.14 318.36Z" id="e5shqhzOH"></path><path d="M104 64.04L104 61.04L223.75 61.04L223.75 64.04L104 64.04Z" id="hIJ59Mtj0"></path></defs><g><g><use xlink:href="#a48cf08Dz" opacity="1" fill="#758889" fill-opacity="1"></use></g><g><use xlink:href="#djgVOySld" opacity="1" fill="#69787a" fill-opacity="1"></use></g><g><use xlink:href="#bmj5rzgUO" opacity="1" fill="#505e5f" fill-opacity="1"></use></g><g><use xlink:href="#ad7Q6Uvu8" opacity="1" fill="#6b7c7d" fill-opacity="1"></use></g><g><use xlink:href="#b1PXFp3iA" opacity="1" fill="#94a8a6" fill-opacity="1"></use></g><g><use xlink:href="#d1qFew7ZI" opacity="1" fill="#e2ebe9" fill-opacity="1"></use></g><g><use xlink:href="#c9z0G2iTj" opacity="1" fill="#212829" fill-opacity="1"></use></g><g><use xlink:href="#ah626jz5f" opacity="1" fill="#2a3333" fill-opacity="1"></use></g><g><use xlink:href="#aNLIzMdK6" opacity="1" fill="#151a1b" fill-opacity="1"></use></g><g><use xlink:href="#a8IoejwP6y" opacity="1" fill="#111415" fill-opacity="1"></use></g><g><use xlink:href="#g8dlgMMEQZ" opacity="1" fill="url(#gradientl7NxPPuF)"></use></g><g><use xlink:href="#bsZWDwZfy" opacity="1" fill="url(#gradientb2VpVGNG7C)"></use></g><g><use xlink:href="#akz1kgzkF" opacity="1" fill="#080b0b" fill-opacity="1"></use></g><g><use xlink:href="#c1bD8gqXkW" opacity="1" fill="url(#gradientbxSOAuFEK)"></use></g><g><use xlink:href="#b2wMoZOAG" opacity="1" fill="url(#gradienti4SQ3ZlKei)"></use></g><g><use xlink:href="#id906Mm1Q" opacity="1" fill="url(#gradientc6wkb4sXs)"></use></g><g><use xlink:href="#b3AqeDXQlh" opacity="1" fill="url(#gradientb5STyLEcxp)"></use></g><g><g><filter id="shadow4307244" x="206.99" y="49.53" width="32" height="279.84" filterUnits="userSpaceOnUse" primitiveUnits="userSpaceOnUse"><feFlood></feFlood><feComposite in2="SourceAlpha" operator="in"></feComposite><feGaussianBlur stdDeviation="1.73"></feGaussianBlur><feOffset dx="2" dy="0" result="afterOffset"></feOffset><feFlood flood-color="#000000" flood-opacity="0.5"></feFlood><feComposite in2="afterOffset" operator="in"></feComposite><feMorphology operator="dilate" radius="1"></feMorphology><feComposite in2="SourceAlpha" operator="out"></feComposite></filter><path d="M220.99 63.53L222.99 63.53L222.99 315.36L220.99 315.36L220.99 63.53Z" id="bQhVdoCgb" fill="white" fill-opacity="1" filter="url(#shadow4307244)"></path></g><use xlink:href="#cDc4KGJT9" opacity="1" fill="#1c1c1c" fill-opacity="1"></use></g><g><use xlink:href="#a6AZTAqfRT" opacity="1" fill="#d7d7d7" fill-opacity="1"></use></g><g><use xlink:href="#e5shqhzOH" opacity="1" fill="#d7d7d7" fill-opacity="1"></use></g><g><use xlink:href="#hIJ59Mtj0" opacity="1" fill="#d7d7d7" fill-opacity="1"></use></g></g></svg>