<?xml version="1.0" encoding="UTF-8" standalone="no"?>
<!DOCTYPE svg PUBLIC "-//W3C//DTD SVG 1.1//EN" "http://www.w3.org/Graphics/SVG/1.1/DTD/svg11.dtd">
<svg version="1.1" xmlns="http://www.w3.org/2000/svg" xmlns:xlink="http://www.w3.org/1999/xlink" preserveAspectRatio="xMidYMid meet" viewBox="35.42105263157896 158.44736842105272 323.10526315789497 109.28947368421052" width="317.11" height="103.29"><defs><path d="M117.7 238.92L38.42 264.74L38.42 213.09L38.42 161.45L117.7 187.27L196.97 213.09L117.7 238.92Z" id="a2SEVhrPZB"></path><path d="M276.25 187.27L355.53 161.45L355.53 213.09L355.53 264.74L276.25 238.92L196.97 213.09L276.25 187.27Z" id="aMRnyVQUK"></path></defs><g><g><g><filter id="shadow1598191" x="29.42" y="152.45" width="177.55" height="122.29" filterUnits="userSpaceOnUse" primitiveUnits="userSpaceOnUse"><feFlood></feFlood><feComposite in2="SourceAlpha" operator="in"></feComposite><feGaussianBlur stdDeviation="1"></feGaussianBlur><feOffset dx="-1" dy="-1" result="afterOffset"></feOffset><feFlood flood-color="#000000" flood-opacity="0.5"></feFlood><feComposite in2="afterOffset" operator="in"></feComposite><feMorphology operator="dilate" radius="1"></feMorphology><feComposite in2="SourceAlpha" operator="out"></feComposite></filter><path d="M117.7 238.92L38.42 264.74L38.42 213.09L38.42 161.45L117.7 187.27L196.97 213.09L117.7 238.92Z" id="i2UkLUVJ4" fill="white" fill-opacity="1" filter="url(#shadow1598191)"></path></g><use xlink:href="#a2SEVhrPZB" opacity="1" fill="#000000" fill-opacity="1"></use></g><g><g><filter id="shadow15954230" x="187.97" y="152.45" width="177.55" height="122.29" filterUnits="userSpaceOnUse" primitiveUnits="userSpaceOnUse"><feFlood></feFlood><feComposite in2="SourceAlpha" operator="in"></feComposite><feGaussianBlur stdDeviation="1"></feGaussianBlur><feOffset dx="1" dy="1" result="afterOffset"></feOffset><feFlood flood-color="#d6d6d6" flood-opacity="0.5"></feFlood><feComposite in2="afterOffset" operator="in"></feComposite><feMorphology operator="dilate" radius="1"></feMorphology><feComposite in2="SourceAlpha" operator="out"></feComposite></filter><path d="M276.25 187.27L355.53 161.45L355.53 213.09L355.53 264.74L276.25 238.92L196.97 213.09L276.25 187.27Z" id="a9soG0Zmz" fill="white" fill-opacity="1" filter="url(#shadow15954230)"></path></g><use xlink:href="#aMRnyVQUK" opacity="1" fill="#000000" fill-opacity="1"></use></g></g></svg>